<svg xmlns="http://www.w3.org/2000/svg" viewBox="0 0 960 560" role="img" aria-labelledby="title desc">
  <title id="title">川辺町の住宅地外観</title>
  <desc id="desc">古い一戸建て、狭い前面道路、隣地境界、背後の鉄塔が見える調査用イラスト。</desc>
  <defs>
    <linearGradient id="sky" x1="0" x2="0" y1="0" y2="1">
      <stop stop-color="#f8fafc" offset="0"/>
      <stop stop-color="#eef2f7" offset="1"/>
    </linearGradient>
    <filter id="softShadow" x="-20%" y="-20%" width="140%" height="140%">
      <feDropShadow dx="0" dy="14" stdDeviation="18" flood-color="#000000" flood-opacity=".12"/>
    </filter>
  </defs>
  <rect width="960" height="560" fill="url(#sky)"/>
  <rect y="410" width="960" height="150" fill="#d9dee5"/>
  <path d="M0 444 C170 426 248 462 396 440 C568 414 688 446 960 422 L960 560 L0 560 Z" fill="#c9d1db"/>
  <g opacity=".9">
    <path d="M782 106 L884 410" stroke="#737373" stroke-width="8" stroke-linecap="round"/>
    <path d="M884 106 L782 410" stroke="#737373" stroke-width="8" stroke-linecap="round"/>
    <path d="M833 72 L833 410" stroke="#525252" stroke-width="10" stroke-linecap="round"/>
    <path d="M768 156 L898 156" stroke="#737373" stroke-width="7" stroke-linecap="round"/>
    <path d="M746 222 L920 222" stroke="#737373" stroke-width="7" stroke-linecap="round"/>
    <path d="M714 48 C766 76 884 80 944 48" fill="none" stroke="#404040" stroke-width="4"/>
    <path d="M716 98 C774 126 894 128 956 100" fill="none" stroke="#404040" stroke-width="3"/>
  </g>
  <g filter="url(#softShadow)">
    <path d="M222 218 L468 110 L714 218 Z" fill="#2f3741"/>
    <rect x="258" y="218" width="412" height="220" rx="4" fill="#f7f3ec"/>
    <rect x="294" y="250" width="104" height="82" rx="2" fill="#d6e3eb"/>
    <rect x="522" y="246" width="102" height="86" rx="2" fill="#d6e3eb"/>
    <rect x="430" y="320" width="80" height="118" rx="2" fill="#5b4738"/>
    <rect x="448" y="342" width="44" height="32" rx="2" fill="#262626" opacity=".18"/>
    <path d="M338 218 L338 438" stroke="#e5ded4" stroke-width="5"/>
    <path d="M584 218 L584 438" stroke="#e5ded4" stroke-width="5"/>
    <path d="M260 374 L670 374" stroke="#e5ded4" stroke-width="5"/>
  </g>
  <g>
    <path d="M360 256 L380 275 L368 294 L392 314" fill="none" stroke="#7f1d1d" stroke-width="5" stroke-linecap="round"/>
    <path d="M388 374 L398 391 L390 412" fill="none" stroke="#7f1d1d" stroke-width="4" stroke-linecap="round"/>
  </g>
  <g>
    <path d="M162 434 L292 386 L326 414 L190 466 Z" fill="#b9b08f"/>
    <path d="M176 424 L304 378" stroke="#5c5242" stroke-width="4" stroke-dasharray="10 8"/>
    <path d="M292 386 L326 414" stroke="#5c5242" stroke-width="4" stroke-dasharray="10 8"/>
    <path d="M238 406 C260 392 290 398 306 416" fill="none" stroke="#7c2d12" stroke-width="5" stroke-linecap="round"/>
  </g>
  <g>
    <rect x="32" y="452" width="896" height="52" rx="8" fill="#a8b0bd"/>
    <rect x="60" y="472" width="828" height="4" rx="2" fill="#f5f5f5" opacity=".65"/>
    <path d="M676 452 C696 442 730 438 750 452" stroke="#6b7280" stroke-width="7" stroke-linecap="round"/>
  </g>
  <g>
    <rect x="612" y="184" width="34" height="78" rx="3" fill="#3f3f46"/>
    <circle cx="629" cy="204" r="9" fill="#facc15"/>
    <path d="M646 214 C704 230 748 232 790 218" fill="none" stroke="#3f3f46" stroke-width="4"/>
  </g>
  <g opacity=".18">
    <circle cx="94" cy="116" r="50" fill="#0a72ef"/>
    <circle cx="142" cy="148" r="28" fill="#de1d8d"/>
    <circle cx="86" cy="174" r="20" fill="#ff5b4f"/>
  </g>
</svg>
